<?xml version="1.0" encoding="utf-8"?>
<!-- Generator: Adobe Illustrator 27.4.0, SVG Export Plug-In . SVG Version: 6.00 Build 0)  -->
<svg version="1.1" id="Layer_1" xmlns="http://www.w3.org/2000/svg" xmlns:xlink="http://www.w3.org/1999/xlink" x="0px" y="0px"
	 height="210" width="200" viewBox="0 0 884 389.9" style="enable-background:new 0 0 884 389.9;" xml:space="preserve">
<g transform="translate(0.000000,900.000000) scale(0.100000,-0.100000)">
	<path d="M1641.4,8832.1c-100-49-110-206-16-263c44-28,94-35,137-21c41,14,97,72,97,101c0,20,11,20,658,20h658l13-35
		c16-46,70-86,124-92s124,29,150,74c24,42,24,114,0,155c-31,53-67,73-133,73c-71,0-106-21-135-83l-20-41l-657-1c-643,0-658,0-658,19
		c0,11-12,34-27,52C1784.4,8847.1,1706.4,8864.1,1641.4,8832.1z M1790.4,8768.1c64-69,18-178-76-179c-49,0-83,22-101,66
		c-31,73,20,144,103,144C1753.4,8799.1,1766.4,8794.1,1790.4,8768.1z M3389.4,8786.1c60-46,66-113,16-163c-28-28-42-34-76-34
		c-56,0-110,50-110,102c0,64,45,107,110,107C3354.4,8798.1,3381.4,8793.1,3389.4,8786.1z"/>
	<path d="M5389.4,8089.1v-740h120h120v740v740h-120h-120V8089.1z"/>
	<path d="M209.4,8074.1v-727l323,5c359,4,393,10,537,82c241,122,376,384,356,695c-20,322-188,545-481,641c-66,21-89,23-402,27
		l-333,4V8074.1z M858.4,8550.1c200-62,311-231,311-476c0-209-90-374-243-445c-86-41-146-50-318-50h-149v495v495h169
		C766.4,8569.1,809.4,8565.1,858.4,8550.1z"/>
	<path d="M3779.4,8554.1c0-152-40-205-155-205h-45v-110v-110h89h90l3-292c3-272,4-296,24-338c27-58,77-108,134-134
		c36-16,65-21,145-21c143,0,145,2,145,120v95h-76c-70,0-78,2-105,29l-29,29v256v256h100h100v110v110h-100h-100v150v150h-110h-110
		V8554.1z"/>
	<path d="M4661.4,8369.1c-131-28-249-123-290-233c-12-32-22-64-22-72c0-9,32-21,98-36c53-12,102-24,108-26s14,11,18,29
		c18,89,97,148,199,148c97,0,158-38,177-111c14-51,0-84-42-97c-18-6-98-20-177-32s-161-28-181-35c-141-50-209-129-218-256
		c-7-97,17-159,87-230c38-38,72-61,106-73c150-51,318-16,411,86l34,38v-37c0-84,0-83,119-83h106l-3,362c-3,397-7,427-62,510
		c-64,97-173,147-330,153C4747.4,8376.1,4685.4,8374.1,4661.4,8369.1z M4954.4,7742.1c-12-112-43-166-117-204c-54-28-144-35-190-16
		c-95,40-104,177-15,224c25,13,246,57,316,62C4959.4,7809.1,4960.4,7796.1,4954.4,7742.1z"/>
	<path d="M2364.4,8358.1c-214-44-365-242-365-479c0-291,207-495,486-478c93,5,153,29,214,84l42,39l-4-105c-6-147-37-204-138-249
		c-60-27-187-29-245-2c-53,24-111,89-126,143c-7,24-13,44-14,45c0,1-48-11-105-26l-105-29l2-35c4-57,43-128,108-193
		c95-96,207-138,365-137c238,1,395,104,472,309c22,58,23,70,26,582l3,522h-116h-115v-57v-57l-43,42c-24,24-66,51-96,62
		C2547.4,8363.1,2433.4,8372.1,2364.4,8358.1z M2624.4,8124.1c51-29,99-95,116-160c18-65,5-176-27-235c-68-126-226-164-356-86
		c-42,25-59,43-83,90c-26,53-30,69-30,145c0,101,21,157,80,214C2398.4,8164.1,2533.4,8178.1,2624.4,8124.1z"/>
	<path d="M1594.4,8337.1c-3-7-4-231-3-498l3-485l118-3l117-3v501v500h-115C1631.4,8349.1,1597.4,8346.1,1594.4,8337.1z"/>
	<path d="M3209.4,7849.1v-500h120h120v500v500h-120h-120V7849.1z"/>
	<path d="M1643.4,6715.1c-67-30-104-111-84-182c29-104,152-146,241-83c82,58,81,190-3,252
		C1763.4,6727.1,1684.4,6734.1,1643.4,6715.1z"/>
	<path d="M3801.4,5972.1l3-738l117-3l117-3l3,323c3,303,4,326,24,368c39,85,120,128,217,116c63-7,107-35,137-88l25-43l3-337l3-338
		h120h120l-3,373c-3,362-4,374-26,430c-13,31-41,79-62,106c-112,141-379,158-523,31l-37-32v286v286h-120h-120L3801.4,5972.1z"/>
	<path d="M219.4,5954.1v-726l123,3l122,3l5,212l5,212l84,93c47,51,89,93,94,93s109-138,231-307l221-308h153c83,0,152,3,152,6
		s-128,180-285,394c-157,213-287,394-290,402c-4,9,49,74,136,169c78,85,209,227,291,317l150,162h-165h-164l-304-340l-304-339l-3,339
		l-2,340h-125h-125V5954.1z"/>
	<path d="M2179.4,6437.1c0-71-4-101-20-132c-25-53-51-68-125-75l-60-6v-105v-105l93-3l92-3v-278c0-215,3-288,15-327
		c32-108,128-174,264-182c42-2,95,1,119,7l42,12v101v101l-43-6c-58-8-117,7-139,35c-16,21-18,49-18,281v257h100h100v110v110h-100
		h-100v150v150h-110h-110V6437.1z"/>
	<path d="M3076.4,6243.1c-183-44-324-185-372-371c-20-75-19-209,1-287c78-301,397-459,697-346c81,31,186,130,229,217
		c37,75,42,68-86,114c-85,30-91,31-101,14c-74-127-125-160-245-160c-91,1-138,22-199,91c-100,113-97,325,6,435c56,60,115,84,203,83
		c105-2,174-49,215-146l15-37l77,29c156,57,146,45,107,126C3533.4,6195.1,3299.4,6297.1,3076.4,6243.1z"/>
	<path d="M5217.4,6244.1c-215-54-359-237-375-476c-19-288,158-520,429-560c226-33,447,83,513,271l14,39l-100,31
		c-56,17-102,30-103,28c-2-2-8-18-16-36c-19-50-92-108-152-122c-61-15-153-8-196,14c-78,40-133,111-147,189l-7,37l363,2l364,3l3,82
		c8,231-108,416-303,483C5425.4,6257.1,5293.4,6263.1,5217.4,6244.1z M5450.4,6029.1c64-33,119-115,119-177c0-10-55-13-240-13h-240
		v23c0,37,58,125,101,154c22,14,57,30,77,34C5319.4,6061.1,5407.4,6050.1,5450.4,6029.1z"/>
	<path d="M6422.4,6249.1c-72-15-130-46-178-95l-45-47v61v61h-115h-115v-500v-500h119h120l3,333l3,332l27,47c34,56,80,87,145,94
		c88,11,165-24,201-89c15-28,18-75,22-372l5-340l118-3l118-3l-3,378c-3,373-3,379-27,438c-32,79-116,165-185,188
		C6574.4,6253.1,6477.4,6261.1,6422.4,6249.1z"/>
	<path d="M7379.4,6243.1c-254-67-412-321-369-594c38-249,194-408,433-442c158-22,309,26,408,130c50,52,108,144,108,171
		c0,8-174,71-194,71c-2,0-14-20-26-45c-24-50-70-90-127-111c-47-16-139-18-184-2c-89,30-163,112-179,199l-7,39h363h363l6,43
		c7,48-9,189-30,246c-55,158-172,262-332,296C7527.4,6262.1,7450.4,6262.1,7379.4,6243.1z M7550.4,6049.1c29-6,70-22,91-35
		c41-27,88-107,88-150v-25h-241h-241l7,33c21,97,121,179,226,186C7489.4,6059.1,7520.4,6054.1,7550.4,6049.1z"/>
	<path d="M8542.4,6220.1c-58-20-115-60-141-99l-17-26l-5,64l-5,65l-117,3l-118,3v-501v-500h120h120v263c0,204,3,276,15,322
		c32,120,110,177,246,178l79,1v123v123h-62C8622.4,6238.1,8571.4,6230.1,8542.4,6220.1z"/>
	<path d="M1589.4,5729.1v-500h120h120v500v500h-120h-120V5729.1z"/>
</g>
</svg>
